<?xml version="1.0" encoding="UTF-8"?>
<svg version="1.1" xmlns="http://www.w3.org/2000/svg" viewBox="40 40 620 620">
<path d="M0 0 C0.64167632 -0.00093643 1.28335263 -0.00187285 1.94447368 -0.00283766 C4.15259045 -0.00469984 6.36063063 0.00081503 8.56874084 0.00622559 C10.20499987 0.00663664 11.84125904 0.00664741 13.47751808 0.00630188 C18.1432844 0.00684571 22.80902063 0.01425229 27.47477841 0.02274132 C31.61652546 0.02951175 35.75827259 0.03259763 39.90002364 0.03586435 C56.90819496 0.04989304 73.91632025 0.08452571 90.92445374 0.12145996 C91.72739164 0.12319875 92.53032954 0.12493753 93.3575989 0.12672901 C150.25131529 0.2502286 207.14494464 0.40646003 264.03856695 0.56684113 C279.32238629 0.60990358 294.60620742 0.65228202 309.89002991 0.69421387 C310.97869508 0.69720086 312.06736025 0.70018786 313.18901528 0.70326537 C318.65482229 0.71825858 324.12062933 0.7332408 329.58643639 0.74821758 C374.36578029 0.87093082 419.14511877 0.99553131 463.92445374 1.12145996 C463.98440385 6.96234112 463.81158527 12.67358271 463.27131748 18.48703194 C463.16539933 19.67963628 463.16539933 19.67963628 463.05734143 20.89633363 C462.8209309 23.54718162 462.57881508 26.19747622 462.33670044 28.84780884 C462.16382953 30.77271377 461.99131099 32.69765038 461.81911367 34.62261569 C461.34579537 39.90223113 460.86746671 45.18138237 460.38830721 50.46047044 C459.87208839 56.15757966 459.36051392 61.85510614 458.84835815 67.55258179 C457.84470934 78.70942289 456.83677093 89.86587249 455.82738621 101.02219595 C454.65231601 114.01155469 453.48148482 127.00129446 452.31083029 139.99105178 C450.15909591 163.86534365 448.00314379 187.73925287 445.84519297 211.61298356 C443.87538928 233.40543185 441.90845272 255.19813691 439.94422913 276.99108887 C439.81807922 278.39070261 439.69192931 279.79031635 439.5657794 281.1899301 C439.50341333 281.88187433 439.44104726 282.57381856 439.37679131 283.2867308 C439.06284584 286.76991558 438.7488973 290.25310008 438.43494511 293.73628426 C438.37300706 294.42346992 438.31106902 295.11065559 438.24725407 295.81866507 C436.25332931 317.94034659 434.25660701 340.06177561 432.25960581 362.18317959 C431.44201432 371.24045119 430.62511211 380.29778481 429.80841255 389.35513687 C428.81339696 400.3894589 427.8169818 411.42365357 426.81882388 422.4576918 C426.30945055 428.0887811 425.80065227 433.71992074 425.29342651 439.35120392 C424.82926321 444.50416576 424.3634122 449.6569721 423.89620023 454.80965839 C423.72731143 456.67552764 423.55903915 458.54145281 423.39143956 460.40743829 C423.16378686 462.94097134 422.93389151 465.4742913 422.70343113 468.00757027 C422.60629789 469.09756515 422.60629789 469.09756515 422.50720236 470.20958012 C422.11027101 474.54047642 421.57265895 478.82289612 420.92445374 483.12145996 C404.28004373 488.30175272 387.53981399 493.08357763 370.74131393 497.73626328 C364.09387261 499.57817189 357.44832596 501.42689367 350.80335999 503.27770996 C350.00988977 503.49864004 349.21641956 503.71957012 348.3989048 503.94719505 C334.62083409 507.78599209 320.86252219 511.69256636 307.10893631 515.61809349 C303.71128378 516.58750336 300.31328212 517.55567892 296.91514587 518.52339172 C295.79476614 518.84246585 294.67438641 519.16153997 293.52005577 519.49028301 C291.25900179 520.13418217 288.99793537 520.77803764 286.73685646 521.42184925 C280.01168008 523.33760334 273.28889461 525.26149925 266.56758022 527.19075584 C262.33912478 528.40238713 258.10852648 529.60639805 253.8773365 530.80844116 C251.89346397 531.37380739 249.91051374 531.94242122 247.92855644 532.51446533 C245.19734914 533.30235399 242.46313283 534.07881024 239.72792053 534.85266113 C238.53711191 535.20067921 238.53711191 535.20067921 237.32224655 535.55572796 C230.01914813 537.5978423 224.15392615 537.43679976 216.8106842 535.33996582 C215.79411145 535.05379347 215.79411145 535.05379347 214.75700188 534.76183987 C212.51599115 534.12864377 210.27892702 533.48252641 208.04164124 532.83630371 C206.44700171 532.38299128 204.85212713 531.93050504 203.2570343 531.47879028 C198.9857111 530.26681932 194.71762767 529.04379157 190.45006561 527.81865311 C186.02006825 526.54896943 181.58714685 525.28958359 177.1544342 524.02941895 C170.05883567 522.0111319 162.96476295 519.98757366 155.87171936 517.96032715 C147.19065864 515.47981542 138.50460089 513.017462 129.81507874 510.56677246 C128.6154953 510.22833817 127.41591187 509.88990387 126.17997742 509.54121399 C123.88553549 508.89398465 121.59107226 508.24683084 119.29658508 507.59976196 C105.26387003 503.64205679 91.24526865 499.64363528 77.25210571 495.54804993 C68.99794375 493.13486265 60.72271671 490.8100402 52.43031311 488.53161621 C51.43966858 488.2570459 50.44902405 487.98247559 49.42835999 487.69958496 C48.58088196 487.46658691 47.73340393 487.23358887 46.86024475 486.99353027 C44.29982389 486.23296285 41.77330967 485.41497582 39.2409668 484.56695557 C38.02773444 484.16110292 38.02773444 484.16110292 36.78999233 483.74705124 C36.1743646 483.54060612 35.55873686 483.334161 34.92445374 483.12145996 C30.82252846 438.15435127 26.72157552 393.18715394 22.62599182 348.21946716 C22.56537311 347.55390382 22.50475439 346.88834048 22.44229875 346.20260855 C21.12488864 331.73803368 19.80765928 317.27344236 18.49061611 302.80883408 C17.84473493 295.71536712 17.19881382 288.6219038 16.5528717 281.52844238 C16.48859347 280.82255862 16.42431523 280.11667486 16.35808917 279.38940068 C14.2747255 256.51075067 12.18872468 233.63234205 10.10135575 210.75405715 C7.95628085 187.24314074 5.81386746 163.73198329 3.67480142 140.22051939 C2.29637122 125.06961851 0.91560163 109.91893479 -0.46865022 94.76856463 C-1.37548967 84.84084843 -2.27934715 74.91286357 -3.18084729 64.98466111 C-3.7013029 59.25387632 -4.22308478 53.52322033 -4.74840355 47.7928791 C-5.22930179 42.54677203 -5.70645472 37.30033825 -6.18063086 32.05361944 C-6.35282942 30.15563045 -6.52640219 28.25776554 -6.70148879 26.36004079 C-6.9394172 23.77898763 -7.17231921 21.19752716 -7.40399933 18.61590672 C-7.47298618 17.88069444 -7.54197304 17.14548217 -7.6130504 16.38799074 C-8.0636851 11.28313712 -8.12974016 6.24636386 -8.07554626 1.12145996 C-5.31028198 -0.26117218 -3.0979656 -0.00193975 0 0 Z " fill="#D4B725" transform="translate(122.07554626464844,80.8785400390625)"/>
<path d="M0 0 C0.77617267 -0.00226556 1.55234533 -0.00453111 2.35203838 -0.00686532 C4.96688489 -0.01322275 7.5816798 -0.01237485 10.1965332 -0.0115509 C12.06548124 -0.01454127 13.93442865 -0.01794351 15.80337524 -0.02172852 C20.89000903 -0.03058424 25.97662601 -0.03290726 31.06326675 -0.0335443 C35.30315041 -0.03449198 39.54303011 -0.03816856 43.78291225 -0.0417164 C53.78113949 -0.04986661 63.77935772 -0.05230008 73.77758789 -0.05158997 C84.10793671 -0.05098872 94.43823338 -0.06154853 104.76856899 -0.07733363 C113.62462073 -0.09038615 122.48065537 -0.09577484 131.33671665 -0.09513456 C136.63191623 -0.09487893 141.92706948 -0.09776548 147.22225952 -0.10831261 C152.19950618 -0.11795542 157.17666183 -0.11809918 162.15391159 -0.11079597 C163.98493965 -0.10974542 165.81597326 -0.11214068 167.64699173 -0.11815643 C170.13797969 -0.12581313 172.62864839 -0.121274 175.11962891 -0.11352539 C175.85171916 -0.11866895 176.58380941 -0.12381252 177.33808422 -0.12911195 C182.33154302 -0.09455867 182.33154302 -0.09455867 184.55981445 2.13371277 C184.66484547 3.96719837 184.66484547 3.96719837 184.45674133 6.24060059 C184.38285911 7.10574941 184.30897688 7.97089823 184.2328558 8.86226368 C184.09366395 10.29661023 184.09366395 10.29661023 183.95166016 11.75993347 C183.81729852 13.27754918 183.81729852 13.27754918 183.68022251 14.82582378 C183.37553596 18.23804893 183.05544294 21.64865905 182.7355957 25.05949402 C182.51547387 27.49202316 182.29635018 29.92464281 182.07815552 32.35734558 C181.6046618 37.61400427 181.12473154 42.87001497 180.63912964 48.12556458 C179.8629219 56.52793471 179.10192125 64.93164684 178.34326172 73.33561707 C178.08320412 76.21454667 177.82303794 79.09346644 177.56282043 81.97238159 C177.46545055 83.04977383 177.46545055 83.04977383 177.3661136 84.14893156 C176.89939049 89.31087184 176.43051495 94.47261407 175.96073914 99.63427734 C174.1820596 119.18333264 172.43658129 138.73501394 170.72387695 158.28996277 C170.61039917 159.58535162 170.49692139 160.88074047 170.38000488 162.21538353 C169.81123767 168.71003899 169.24307886 175.20474751 168.6751709 181.69947815 C164.49442855 229.49726185 160.22915502 277.28722255 155.90722656 325.07243347 C155.7617005 326.68236695 155.7617005 326.68236695 155.61323452 328.32482433 C155.14089901 333.5493045 154.66759899 338.77369336 154.19218445 343.99789429 C153.25283561 354.33779409 152.33760404 364.67919568 151.45776367 375.02433777 C151.19048257 378.13708938 150.92268313 381.24979595 150.65470695 384.36248779 C150.40656726 387.27146686 150.1658908 390.18099978 149.9254303 393.09062195 C149.77391109 394.85436737 149.6220304 396.6180818 149.46972656 398.38175964 C149.37572351 399.56324585 149.37572351 399.56324585 149.2798214 400.76860046 C148.86966 405.40679279 148.39349456 409.81179376 146.55981445 414.13371277 C143.9699707 415.60018921 143.9699707 415.60018921 140.62231445 416.44694519 C138.7245224 416.95101646 138.7245224 416.95101646 136.78839111 417.465271 C135.37897456 417.80702434 133.9694451 418.14831231 132.55981445 418.48918152 C131.08170883 418.87043074 129.6043251 419.25448819 128.12762451 419.6411438 C124.94736221 420.46790056 121.76309747 421.27571798 118.57434082 422.06907654 C113.53348166 423.32348339 108.50349646 424.61793406 103.47485352 425.92033386 C98.23287065 427.2761955 92.99034281 428.62964912 87.74420166 429.96934509 C70.18463112 434.45579211 52.69035926 439.17454719 35.2019043 443.92951965 C30.3653451 445.24434744 25.52720298 446.55327722 20.6887207 447.86100769 C17.72384253 448.66271963 14.75900904 449.46459671 11.79418945 450.26652527 C10.76800632 450.54401769 10.76800632 450.54401769 9.72109222 450.82711601 C7.79967624 451.34691554 5.87847117 451.8674945 3.95727539 452.3881073 C2.34801178 452.8239061 2.34801178 452.8239061 0.70623779 453.26850891 C-2.68238642 454.20031319 -6.06100224 455.16823182 -9.44018555 456.13371277 C-9.44018555 305.98371277 -9.44018555 155.83371277 -9.44018555 1.13371277 C-6.42307921 -0.3748404 -3.30920066 -0.007 0 0 Z " fill="#FAD720" transform="translate(359.440185546875,123.86628723144531)"/>
<path d="M0 0 C49.83 0 99.66 0 151 0 C147.35714286 54.64285714 147.35714286 54.64285714 146 56 C142.92545239 56.09532328 139.87340842 56.1255138 136.79858398 56.11352539 C135.34995972 56.11374443 135.34995972 56.11374443 133.87207031 56.1139679 C130.66338901 56.11326834 127.45476497 56.10547397 124.24609375 56.09765625 C122.02791882 56.09579222 119.80974348 56.09436825 117.59156799 56.09336853 C111.74059929 56.08954216 105.88965523 56.07971086 100.03869629 56.06866455 C93.02532714 56.05665902 86.01194978 56.05204876 78.9985733 56.04621124 C68.33236504 56.03649916 57.6662109 56.01734343 47 56 C47 83.06 47 110.12 47 138 C53.37828125 137.278125 59.7565625 136.55625 66.328125 135.8125 C70.36585812 135.35652606 74.40360515 134.90068306 78.44140625 134.4453125 C84.85219654 133.722311 91.26292921 132.99882195 97.67333984 132.27246094 C102.8407728 131.68697187 108.00844546 131.10364325 113.17629242 130.52182007 C115.14916448 130.2993178 117.1219485 130.07603349 119.09464264 129.85195923 C121.85485921 129.53856639 124.61537399 129.22794024 127.37597656 128.91796875 C128.6027285 128.77770767 128.6027285 128.77770767 129.85426331 128.63461304 C133.26841793 128.25379638 136.55943223 128 140 128 C140.13934016 136.57024699 139.72837074 144.99840634 139.00610352 153.53613281 C138.90042053 154.83201324 138.79473755 156.12789368 138.68585205 157.46304321 C138.39890602 160.97966281 138.10594118 164.49575641 137.81171155 168.01177311 C137.5032054 171.70994565 137.20005958 175.40855797 136.89622498 179.1071167 C136.3858427 185.31061849 135.87179305 191.51380729 135.35522461 197.71679688 C134.69367719 205.66094515 134.03828055 213.60558841 133.3847971 221.55040359 C132.82052634 228.40992728 132.25337312 235.26921221 131.68579364 242.12846279 C131.50453556 244.32051447 131.32368035 246.51259912 131.14288521 248.70468903 C130.80514355 252.7971193 130.46439688 256.88929407 130.12329102 260.98144531 C130.02402817 262.18682953 129.92476532 263.39221375 129.82249451 264.63412476 C129.33575187 270.44388108 128.7793811 276.22194902 128 282 C115.9211261 285.93946631 103.62609988 289.04333613 91.33203125 292.2265625 C89.04281655 292.82122627 86.75364804 293.41606785 84.46452332 294.01107788 C79.68850795 295.2517924 74.91195812 296.49042171 70.13500977 297.72753906 C64.03147874 299.30838081 57.9292978 300.89436455 51.82750416 302.48189735 C47.10870273 303.70901827 42.38920749 304.93345311 37.66950035 306.15708542 C35.4195622 306.74073598 33.16983462 307.32519892 30.92032814 307.91051102 C27.77285946 308.72902953 24.62447409 309.5439263 21.47583008 310.35791016 C20.10167938 310.71640297 20.10167938 310.71640297 18.69976807 311.08213806 C12.83459238 312.59321436 6.950774 313.87274079 1 315 C0.30585006 301.18979028 -0.07449024 287.42280383 -0.03125 273.59765625 C-0.02873258 272.16996297 -0.02645291 270.74226924 -0.02441406 269.3145752 C-0.01900112 265.87637406 -0.01042599 262.43819004 0 259 C9.48437445 256.4583785 18.96950077 253.91958349 28.45555019 251.38422012 C32.86208486 250.20638195 37.26837209 249.02763577 41.67407227 247.84667969 C45.93992615 246.70324785 50.20645796 245.56237709 54.47343636 244.42314911 C56.08682828 243.99193926 57.69998968 243.55986574 59.31289482 243.12683868 C61.60305864 242.51215528 63.89408666 241.90078691 66.18530273 241.29003906 C66.82548843 241.1174054 67.46567413 240.94477173 68.1252594 240.76690674 C76.04548745 238.6637189 84.0131695 236.87925423 92 235 C92 220.15 92 205.3 92 190 C85.75449219 191.0828125 79.50898438 192.165625 73.07421875 193.28125 C69.12309431 193.96512045 65.17194542 194.64884296 61.22070312 195.33203125 C54.94579272 196.41700721 48.67098157 197.50253685 42.39672852 198.59130859 C37.33968556 199.46882257 32.28222642 200.34389915 27.22446632 201.2172699 C25.29256909 201.55131311 23.3608248 201.88624213 21.42923546 202.22206116 C18.72885501 202.69138527 16.02795344 203.15758904 13.3269043 203.62304688 C12.52417587 203.76330795 11.72144745 203.90356903 10.89439392 204.04808044 C7.8897254 204.56322461 5.05488863 205 2 205 C1.25387216 170.98040911 0.81787834 136.95912574 0.47089767 102.9334259 C0.42878654 98.84063723 0.38508888 94.74786631 0.3410511 90.65509796 C0.027577 60.43332762 0 30.22579988 0 0 Z " fill="#FEFEFD" transform="translate(369,186)"/>
<path d="M0 0 C15.18 0 30.36 0 46 0 C46 103.95 46 207.9 46 315 C5.76593564 304.65409774 5.76593564 304.65409774 -7.69140625 300.9921875 C-9.23814058 300.57321498 -10.78493106 300.15444966 -12.33177185 299.73587036 C-16.28549069 298.66545183 -20.23851416 297.59249045 -24.19134521 296.51879883 C-28.95715764 295.22481985 -33.72381895 293.93397145 -38.49040794 292.6428566 C-42.34505002 291.59864048 -46.19942329 290.55345759 -50.0531311 289.50579834 C-57.01534518 287.61401916 -63.98026757 285.73481887 -70.95654297 283.89550781 C-72.77604713 283.41357468 -72.77604713 283.41357468 -74.63230896 282.92190552 C-76.86939241 282.33047188 -79.10765734 281.74348162 -81.3473053 281.16183472 C-82.3218718 280.90362946 -83.29643829 280.64542419 -84.30053711 280.37939453 C-85.14216904 280.15945831 -85.98380096 279.93952209 -86.85093689 279.71292114 C-89 279 -89 279 -92 277 C-92.36076355 274.67147827 -92.36076355 274.67147827 -92.34057617 271.72412109 C-92.34034958 270.6231308 -92.34012299 269.5221405 -92.33988953 268.38778687 C-92.32440567 267.19505157 -92.30892181 266.00231628 -92.29296875 264.7734375 C-92.28872391 263.55548492 -92.28447906 262.33753235 -92.28010559 261.08267212 C-92.26326831 257.17989296 -92.22560595 253.27762396 -92.1875 249.375 C-92.17245974 246.73438244 -92.15877019 244.09375681 -92.14648438 241.453125 C-92.11334822 234.96857496 -92.06309861 228.48432392 -92 222 C-75.74411144 225.54850149 -59.74158222 230.09328318 -43.70391846 234.50219727 C-37.71728969 236.14729893 -31.7291399 237.78685686 -25.74107552 239.42672348 C-23.67145855 239.99400746 -21.60222827 240.56268314 -19.5330658 241.13162231 C-18.26717117 241.47893402 -17.00127655 241.82624573 -15.69702148 242.18408203 C-14.04185768 242.63897507 -14.04185768 242.63897507 -12.35325623 243.10305786 C-8.57873831 244.11268073 -4.79271749 245.06119686 -1 246 C-1.00092179 245.15746862 -1.00184359 244.31493725 -1.00279331 243.44687462 C-1.02527043 222.55931914 -1.04161052 201.67176586 -1.05181217 180.78420067 C-1.05688175 170.68148731 -1.06376371 160.57878228 -1.07543945 150.47607422 C-1.13228981 100.30671523 -0.90035286 50.16193639 0 0 Z " fill="#ECEFEF" transform="translate(286,186)"/>
</svg>
